# xmcd
#
# Track frame offsets: 
#        183
#        18008
#        33355
#        49225
#        64720
#        87543
#        105720
#        121043
#        138185
#        151805
#
# Disc length: 2305 seconds
#
# Revision: 0
# Processed by: cddbd v1.5.2PL0 Copyright (c) Steve Scherf et al.
# Submitted via: ExactAudioCopy v0.99pb3
#
DISCID=7408ff0a
DTITLE=Williams Brothers - Two Stories
DYEAR=1987
DGENRE=Country
TTITLE0=Some Become Strangers
TTITLE1=Inch By Inch
TTITLE2=How Long
TTITLE3=Keeping Me Alive
TTITLE4=Spark Of Life
TTITLE5=You Like Me
TTITLE6=Staight A's In Love
TTITLE7=State Of Minds
TTITLE8=All Pumped Up
TTITLE9=Rain Came Down
EXTD=
EXTT0=
EXTT1=
EXTT2=
EXTT3=
EXTT4=
EXTT5=
EXTT6=
EXTT7=
EXTT8=
EXTT9=
PLAYORDER=
